<?xml version="1.0" encoding="utf-8"?>
<!-- Generator: Adobe Illustrator 24.2.0, SVG Export Plug-In . SVG Version: 6.00 Build 0)  -->
<svg version="1.1" id="Laag_1" xmlns="http://www.w3.org/2000/svg" xmlns:xlink="http://www.w3.org/1999/xlink" x="0px" y="0px"
	 viewBox="0 0 96 96" style="enable-background:new 0 0 96 96;" xml:space="preserve">
<style type="text/css">
	.st0{fill:#1E1E1E;stroke:#1E1E1E;stroke-width:3;stroke-miterlimit:10;}
</style>
<path class="st0" d="M86.9,71.3C85.1,61.8,75.7,54,66,54H30c-9.7,0-19.2,7.8-21,17.3L5.3,90h4.1l3.5-17.9C14.4,64.4,22.2,58,30,58
	h36c7.8,0,15.6,6.4,17,14.1L86.4,90h4.1L86.9,71.3z"/>
<path class="st0" d="M48,49c12.4,0,22.5-10.1,22.5-22.5S60.4,4,48,4S25.5,14.1,25.5,26.5l0,0C25.5,38.9,35.6,49,48,49z M48,8
	c10.2,0,18.5,8.3,18.5,18.5S58.2,45,48,45s-18.5-8.3-18.5-18.5S37.8,8,48,8z"/>
<circle class="st0" cx="40" cy="27" r="3"/>
<circle class="st0" cx="56" cy="27" r="3"/>
</svg>
