<?xml version="1.0" encoding="utf-8"?>
<!-- Generator: Adobe Illustrator 24.2.0, SVG Export Plug-In . SVG Version: 6.00 Build 0)  -->
<svg version="1.1" id="_x37_e5ef285-a0cc-4661-96a2-b11680afc677"
	 xmlns="http://www.w3.org/2000/svg" xmlns:xlink="http://www.w3.org/1999/xlink" x="0px" y="0px" viewBox="0 0 96 96"
	 style="enable-background:new 0 0 96 96;" xml:space="preserve">
<style type="text/css">
	.st0{fill:#1E1E1E;stroke:#1E1E1E;stroke-width:4;stroke-miterlimit:10;}
</style>
<title>search_v1</title>
<path class="st0" d="M88.7,72.6L66,50c-3.9-3.9-10-4.4-14.5-1.3l-8.1-8.1c8.1-9.1,7.2-23-1.8-31.1s-23-7.2-31.1,1.8
	s-7.2,23,1.8,31.1c7.9,7,19.8,7.4,28.1,0.9l8.2,8.2C45.6,56,46.1,62.1,50,66l22.7,22.7c4.2,4.7,11.3,5,16,0.9s5-11.3,0.9-16
	C89.2,73.2,89,73,88.7,72.6L88.7,72.6z M27,44c-9.9,0-18-8.1-18-18S17.1,8,27,8s18,8.1,18,18S36.9,44,27,44z M85.8,85.8
	c-2.9,2.9-7.5,2.9-10.4,0l0,0L52.8,63.2c-2.9-2.9-2.9-7.5,0-10.4s7.5-2.9,10.4,0l22.7,22.7C88.7,78.3,88.7,83,85.8,85.8
	C85.9,85.8,85.9,85.8,85.8,85.8z"/>
</svg>
