<?xml version="1.0" encoding="utf-8"?>
<!-- Generator: Adobe Illustrator 24.2.0, SVG Export Plug-In . SVG Version: 6.00 Build 0)  -->
<svg version="1.1" id="_x32_a9aa306-a9c3-4b6e-9f5b-05d8332acf2b"
	 xmlns="http://www.w3.org/2000/svg" xmlns:xlink="http://www.w3.org/1999/xlink" x="0px" y="0px" viewBox="0 0 96 96"
	 style="enable-background:new 0 0 96 96;" xml:space="preserve">
<style type="text/css">
	.st0{fill:#1E1E1E;stroke:#1E1E1E;stroke-width:3;stroke-miterlimit:10;}
</style>
<path class="st0" d="M86.8,35c-1.7-2-4.2-3.1-6.8-3H54.3L32.9,10.6c-3-3.2-8.1-3.3-11.3-0.3s-3.3,8.1-0.3,11.3
	c0.1,0.1,0.2,0.2,0.3,0.3L31.7,32H16c-4.7-0.1-8.7,3.6-8.8,8.3c0,0.6,0,1.3,0.2,1.9l5.4,32.2c1.1,5.4,5.8,9.4,11.3,9.6h48
	c5.5-0.2,10.2-4.1,11.3-9.6l5.4-32.2C89.2,39.7,88.5,37,86.8,35z M23.3,16.3c0-2.2,1.8-4,4-4c1.1,0,2.1,0.4,2.8,1.2L51.6,35
	c1.6,1.6,1.6,4.1,0,5.7l0,0l0,0c-1.6,1.5-4.1,1.5-5.7,0L24.4,19.1C23.7,18.3,23.3,17.3,23.3,16.3z M12.3,37.6
	c0.9-1.1,2.3-1.7,3.7-1.6h19.7l7.4,7.4c3.1,3.1,8.2,3.1,11.3,0c1.5-1.5,2.3-3.5,2.3-5.7c0-0.6-0.1-1.2-0.2-1.7H80
	c2.5-0.1,4.7,1.8,4.8,4.3c0,0.4,0,0.8-0.1,1.2L83.6,48H12.4l-1.1-6.4C11,40.2,11.4,38.7,12.3,37.6z M79.3,73.8
	c-0.7,3.5-3.8,6.1-7.3,6.2H24c-3.6-0.1-6.6-2.7-7.3-6.2L13,52h70L79.3,73.8z"/>
<rect x="28" y="60" class="st0" width="4" height="12"/>
<rect x="40" y="60" class="st0" width="4" height="12"/>
<rect x="52" y="60" class="st0" width="4" height="12"/>
<rect x="64" y="60" class="st0" width="4" height="12"/>
</svg>
