<?xml version="1.0" encoding="utf-8"?>
<!-- Generator: Adobe Illustrator 24.2.0, SVG Export Plug-In . SVG Version: 6.00 Build 0)  -->
<svg version="1.1" id="Layer_1" xmlns="http://www.w3.org/2000/svg" xmlns:xlink="http://www.w3.org/1999/xlink" x="0px" y="0px"
	 viewBox="0 0 40 140" style="enable-background:new 0 0 40 140;" xml:space="preserve">
<style type="text/css">
	.st0{fill:#0099FF;}
</style>
<path d="M20,100c-11,0-20,9-20,20s9,20,20,20s20-9,20-20S31,100,20,100z M27.5,121.4l-10.2,10.3c-0.4,0.4-0.9,0.6-1.4,0.6
	s-1-0.2-1.4-0.6c-0.8-0.8-0.8-2,0-2.8l8.8-8.8l-8.8-8.8c-0.8-0.8-0.8-2,0-2.8c0.8-0.8,2-0.8,2.8,0l10.2,10.2
	C28.3,119.4,28.3,120.6,27.5,121.4z"/>
<path class="st0" d="M20,0C9,0,0,9,0,20s9,20,20,20s20-9,20-20S31,0,20,0z M27.5,21.4L17.3,31.7c-0.4,0.4-0.9,0.6-1.4,0.6
	s-1-0.2-1.4-0.6c-0.8-0.8-0.8-2,0-2.8l8.8-8.8l-8.8-8.8c-0.8-0.8-0.8-2,0-2.8c0.8-0.8,2-0.8,2.8,0l10.2,10.2
	C28.3,19.4,28.3,20.6,27.5,21.4z"/>
</svg>
